
<?xml version="1.0" standalone="no"?>
<!DOCTYPE svg PUBLIC "-//W3C//DTD SVG 20010904//EN"
 "http://www.w3.org/TR/2001/REC-SVG-20010904/DTD/svg10.dtd">
<svg version="1.0" xmlns="http://www.w3.org/2000/svg"
 width="192.000000pt" height="192.000000pt" viewBox="0 0 192.000000 192.000000"
 preserveAspectRatio="xMidYMid meet">

<g transform="translate(0.000000,192.000000) scale(0.100000,-0.100000)"
fill="#000000" stroke="none">
<path d="M320 1725 c-11 -13 -9 -42 13 -163 l27 -147 67 -65 c38 -36 117 -111
177 -167 l110 -101 -109 -118 c-59 -66 -111 -120 -116 -122 -4 -2 -41 15 -82
37 -40 23 -77 41 -81 41 -19 0 -136 -125 -136 -144 0 -13 24 -46 60 -81 l60
-60 -130 -130 c-80 -80 -130 -138 -130 -150 0 -26 149 -175 174 -175 11 0 75
55 151 130 l131 130 59 -60 c34 -35 68 -60 80 -60 23 0 145 117 145 139 0 7
-18 43 -40 81 -22 38 -40 71 -40 75 0 6 84 86 203 194 l47 44 58 -54 c31 -29
88 -82 126 -118 l68 -65 -43 -83 -44 -82 65 -66 c38 -38 73 -65 85 -65 12 0
46 25 80 60 l60 60 130 -130 c83 -83 138 -130 151 -130 25 0 174 150 174 176
0 9 -58 76 -130 149 l-130 131 55 54 c80 79 81 89 4 166 -35 35 -69 64 -77 64
-7 0 -44 -18 -83 -40 -39 -22 -72 -40 -74 -40 -3 0 -70 70 -176 184 l-54 58
41 37 c177 158 301 278 310 300 6 14 21 86 34 159 31 178 36 174 -136 143 -70
-13 -141 -28 -158 -33 -22 -6 -77 -59 -181 -174 -82 -90 -152 -164 -155 -164
-3 0 -46 44 -94 98 -49 53 -119 129 -157 168 l-68 71 -133 27 c-155 30 -171
31 -188 11z m215 -107 l65 -12 373 -403 c204 -221 373 -407 375 -412 2 -5 -17
-30 -41 -55 l-45 -45 -410 379 c-455 421 -416 374 -438 524 l-7 49 32 -6 c17
-4 60 -12 96 -19z m975 15 c0 -5 -7 -47 -16 -95 l-16 -88 -165 -152 -165 -152
-66 68 -65 67 30 32 c16 18 84 91 152 164 l122 131 77 15 c93 18 112 19 112
10z m-670 -669 l55 -55 -52 -47 c-29 -26 -83 -75 -121 -109 l-69 -62 -46 47
-47 48 107 117 c60 64 110 117 113 117 3 0 30 -25 60 -56z m-433 -181 c94 -52
180 -136 237 -233 l49 -82 -22 -21 -21 -22 -177 177 c-175 175 -177 177 -158
198 10 11 20 20 22 20 3 0 34 -16 70 -37z m1198 17 c19 -21 17 -23 -158 -198
l-177 -177 -21 22 -21 21 43 73 c57 99 138 182 229 235 41 24 78 44 81 44 3 0
14 -9 24 -20z m-1190 -260 l29 -30 -24 -27 c-56 -65 -128 -137 -163 -165 l-38
-31 -30 29 c-16 15 -29 32 -29 38 0 14 202 216 215 216 6 0 24 -13 40 -30z
m1263 -94 c45 -45 82 -85 82 -91 0 -14 -52 -65 -66 -65 -5 0 -56 47 -114 105
l-104 105 34 35 34 35 25 -22 c14 -12 63 -58 109 -102z"/>
</g>
</svg>
